<svg width="23" height="22" viewBox="0 0 23 22" fill="none" xmlns="http://www.w3.org/2000/svg">
<path d="M19.6256 10.5591L17.1268 9.84499C16.0015 9.52774 14.9764 8.92701 14.1497 8.1003C13.323 7.27358 12.7223 6.24853 12.405 5.12324L11.6909 2.62441C11.655 2.53698 11.5939 2.4622 11.5154 2.40958C11.4369 2.35695 11.3445 2.32886 11.25 2.32886C11.1555 2.32886 11.0631 2.35695 10.9846 2.40958C10.9061 2.4622 10.845 2.53698 10.8091 2.62441L10.095 5.12324C9.77778 6.24853 9.17705 7.27358 8.35033 8.1003C7.52362 8.92701 6.49857 9.52774 5.37328 9.84499L2.87445 10.5591C2.7785 10.5863 2.69405 10.6441 2.63392 10.7237C2.57379 10.8032 2.54126 10.9003 2.54126 11C2.54126 11.0997 2.57379 11.1967 2.63392 11.2763C2.69405 11.3559 2.7785 11.4137 2.87445 11.4409L5.37328 12.155C6.49857 12.4722 7.52362 13.073 8.35033 13.8997C9.17705 14.7264 9.77778 15.7514 10.095 16.8767L10.8091 19.3756C10.8363 19.4715 10.8941 19.556 10.9737 19.6161C11.0533 19.6762 11.1503 19.7088 11.25 19.7088C11.3498 19.7088 11.4468 19.6762 11.5264 19.6161C11.6059 19.556 11.6637 19.4715 11.6909 19.3756L12.405 16.8767C12.7223 15.7514 13.323 14.7264 14.1497 13.8997C14.9764 13.073 16.0015 12.4722 17.1268 12.155L19.6256 11.4409C19.7216 11.4137 19.806 11.3559 19.8661 11.2763C19.9263 11.1967 19.9588 11.0997 19.9588 11C19.9588 10.9003 19.9263 10.8032 19.8661 10.7237C19.806 10.6441 19.7216 10.5863 19.6256 10.5591Z" fill="#9F64FC"/>
</svg>
