<svg width="51" height="50" viewBox="0 0 51 50" fill="none" xmlns="http://www.w3.org/2000/svg">
<path d="M44.2854 23.9979L38.6062 22.375C36.0488 21.6539 33.7191 20.2887 31.8402 18.4098C29.9613 16.5308 28.596 14.2012 27.875 11.6437L26.2521 5.96455C26.1705 5.76585 26.0316 5.59591 25.8532 5.47631C25.6748 5.3567 25.4648 5.29285 25.25 5.29285C25.0352 5.29285 24.8252 5.3567 24.6468 5.47631C24.4684 5.59591 24.3295 5.76585 24.2479 5.96455L22.625 11.6437C21.904 14.2012 20.5387 16.5308 18.6598 18.4098C16.7809 20.2887 14.4512 21.6539 11.8938 22.375L6.21458 23.9979C5.99652 24.0598 5.8046 24.1911 5.66794 24.372C5.53128 24.5528 5.45734 24.7733 5.45734 25C5.45734 25.2266 5.53128 25.4471 5.66794 25.628C5.8046 25.8088 5.99652 25.9402 6.21458 26.0021L11.8938 27.625C14.4512 28.346 16.7809 29.7113 18.6598 31.5902C20.5387 33.4691 21.904 35.7987 22.625 38.3562L24.2479 44.0354C24.3098 44.2534 24.4411 44.4454 24.622 44.582C24.8028 44.7187 25.0233 44.7926 25.25 44.7926C25.4767 44.7926 25.6972 44.7187 25.878 44.582C26.0589 44.4454 26.1902 44.2534 26.2521 44.0354L27.875 38.3562C28.596 35.7987 29.9613 33.4691 31.8402 31.5902C33.7191 29.7113 36.0488 28.346 38.6062 27.625L44.2854 26.0021C44.5035 25.9402 44.6954 25.8088 44.8321 25.628C44.9687 25.4471 45.0427 25.2266 45.0427 25C45.0427 24.7733 44.9687 24.5528 44.8321 24.372C44.6954 24.1911 44.5035 24.0598 44.2854 23.9979Z" fill="#F0B801"/>
</svg>
